<?xml version="1.0"?>
<svg xmlns="http://www.w3.org/2000/svg" height="512px" viewBox="-21 -115 682.66522 682" width="512px"><path d="m120.070312 405.707031-37.335937-122.679687-66.191406 66.1875c-22.058594 22.058594-22.058594 57.953125 0 80.015625 22.058593 22.054687 57.953125 22.054687 80.007812 0zm0 0" fill="#FFFFFF"/><path d="m514.28125 225.910156c-2.792969 4.226563-6.046875 8.234375-9.765625 11.957032l-7.785156 7.78125c-22.058594 22.058593-22.058594 57.949218 0 80.011718 10.683593 10.683594 24.894531 16.566406 40.007812 16.566406 15.109375 0 29.316407-5.882812 40.003907-16.566406l7.78125-7.785156c17.089843-17.09375 30.503906-36.898438 39.863281-58.457031zm0 0" fill="#FFFFFF"/><path d="m290.21875 235.5625 105.996094-105.996094c.972656-.972656 1.960937-1.90625 2.972656-2.8125l-34.261719-112.511718c-17.796875 8.976562-34.234375 20.828124-48.722656 35.3125l-63.324219 63.320312zm0 0" fill="#FFFFFF"/><path d="m526.652344 189.738281 109.296875 33.261719c2.667969-12.773438 4.050781-25.917969 4.050781-39.285156 0-44.296875-15.019531-86.238282-42.636719-119.980469l-81.046875 81.046875c8.109375 13.746094 11.542969 29.496094 10.335938 44.957031zm0 0" fill="#FFFFFF"/><path d="m570.34375 36.71875c-33.738281-27.617188-75.675781-42.636719-119.980469-42.636719-17.011719 0-33.671875 2.226563-49.652343 6.515625l33.011718 108.410156c18.703125-4.128906 38.660156-1.230468 55.578125 8.757813zm0 0" fill="#FFFFFF"/><path d="m222.265625 143.496094-108.914063 108.90625 37.339844 122.6875 108.910156-108.90625zm0 0" fill="#FFFFFF"/></svg>
